<svg xmlns="http://www.w3.org/2000/svg" viewBox="0 0 576 512" x="0" y="0" aria-hidden="true" focusable="false" role="img"><path d="M544.85,242.69a157.08,157.08,0,0,0-53.47-44.29c-.93-31.22-15.16-62.46-38.83-83.25a101,101,0,0,0-80.82-24.46c-31.57-36.17-75.19-56.62-121.81-56.62-41,0-78.14,12.81-107.3,37-28.17,23.43-47,56.24-54.87,95.45A158.36,158.36,0,0,0,30,222.14a175.29,175.29,0,0,0-26,92.43c0,44.09,15.81,85.64,44.51,117,29.24,31.93,68.3,49.52,110,49.52H432.62c78,0,141.45-68.3,141.45-152.25A140.75,140.75,0,0,0,544.85,242.69ZM432.62,433.07h-274c-58.73,0-106.5-53.16-106.5-118.5a127.37,127.37,0,0,1,18.77-67.16c12-19.37,28.69-34.2,48.28-42.9l12.23-5.43,1.81-13.26c4.47-32.78,18.36-59.68,40.15-77.8,20.43-17,46.91-25.95,76.61-25.95,36.17,0,70,17.93,92.85,49.2l9.85,13.49,16.07-4.56c24.77-7,42.05,2.11,52.18,11,16.23,14.26,25.06,37.91,22,58.84l-2.82,19L458,236c19.76,7.6,36.63,20,48.75,35.87a93.11,93.11,0,0,1,19.36,57C526.07,386.3,484.14,433.07,432.62,433.07Z" fill="currentColor"/><path d="M351.67,248.64a12,12,0,0,0-17.1.1l-54.5,55.8V165a12,12,0,0,0-12-12h-24a12,12,0,0,0-12,12v139.5l-54.5-55.8a12,12,0,0,0-17.1-.1l-16.9,16.9a12,12,0,0,0,0,17l104,104a12,12,0,0,0,17,0l104-104a12,12,0,0,0,0-17Z" fill="currentColor"/></svg>